<svg xmlns="http://www.w3.org/2000/svg" viewBox="0 0 800 800" width="800" height="800">
	<style>
		tspan { white-space:pre }
		.shp0 { fill: #000000 } 
	</style>
	<path class="shp0" d="M62 309C62 309 90 310.45 91 338C92 365.55 68.5 372.95 64 372C59.5 371.05 31.5 375.45 32 341C32.5 306.55 68 307.95 62 309Z" />
	<path class="shp0" d="" />
	<path class="shp0" d="M494 202C494 202 507.75 179.72 532 189C556.25 198.28 533.25 224.47 534 223C534.75 221.53 490 260.97 479 269C468 277.03 397.67 333.24 344 400C338.5 408.05 291.5 470.45 280 479C268.5 487.55 253.5 503.45 245 496C236.5 488.55 236.5 480.45 240 470C243.5 459.55 374.88 302.96 418.88 264.01C420.63 263.39 419.75 260.36 418 261C416.25 261.64 322.33 287.63 253 283C183.67 278.37 185.33 266.96 176 254C170.67 247.7 176.33 232.3 188 235C191.2 236.02 192.6 238.58 195 240C197.4 241.42 274.4 241.18 294 240C313.6 238.82 436 226.58 494 202Z" />
	<path class="shp0" d="" />
	<path class="shp0" d="M516 579C516 579 405.67 547.3 308 493C293.33 485.7 278 486 278 486C278 486 251.67 487.3 262 507C265 513.7 276 524 276 524C276 524 438 602.3 505 622C513.67 624.04 538 628.3 543 613C548 597.7 516 579 516 579Z" />
	<path class="shp0" d="M527 350C527 350 601.75 301.72 641 269C680.25 236.28 708.25 218.22 746 177C751.75 171.53 755.75 163.47 766 168C776.25 172.53 767.25 185.47 765 189C762.75 192.53 735.75 215.22 707 263C702.25 272.28 685 288.22 685 288C685 287.78 616 348.22 573 371C568.25 375.53 552.75 385.72 517 407C505.75 415.78 476.25 430.22 468 411C463.5 398.53 487 381 487 381L527 350Z" />
	<path class="shp0" d="M552 426C552 426 595.75 438.72 693 427C701.75 426.03 708.5 425.97 711 431C713.5 436.03 711.5 440.47 707 445C702.5 449.53 676.5 464.22 644 471C634.75 473.53 581 471 581 471C581 471 568.75 470.72 554 462C539.25 453.28 537.5 450.47 534 444C530.5 437.53 536.75 424.97 552 426Z" />
	<path class="shp0" d="M752 552C752 552 774 587.47 730 580C718.25 578.28 663.25 541.72 659 533C654.75 524.28 655.75 507.47 681 509C706.25 510.53 730.8 533.78 752 552Z" />
	<path class="shp0" d="M984 384" />
</svg>